<?xml version="1.0" standalone="no"?>
<!DOCTYPE svg PUBLIC "-//W3C//DTD SVG 20010904//EN"
 "http://www.w3.org/TR/2001/REC-SVG-20010904/DTD/svg10.dtd">
<svg version="1.0" xmlns="http://www.w3.org/2000/svg"
 width="current" height="current" viewBox="0 0 512.000000 512.000000"
 preserveAspectRatio="xMidYMid meet">

<g transform="translate(0.000000,512.000000) scale(0.100000,-0.100000)"
fill="rgba(55, 53, 47, 0.35)" stroke="none">
<path d="M1550 4674 c-223 -58 -408 -245 -465 -469 -19 -76 -19 -222 0 -304
20 -85 84 -204 146 -274 63 -71 179 -149 261 -176 179 -58 328 -49 498 31 119
57 231 169 288 289 22 46 46 109 53 139 18 77 16 222 -4 300 -60 228 -245 412
-468 465 -80 18 -236 18 -309 -1z"/>
<path d="M3257 4675 c-83 -21 -203 -86 -272 -148 -77 -68 -148 -179 -181 -281
-21 -64 -26 -102 -27 -181 -1 -121 12 -183 65 -295 57 -119 169 -231 289 -288
216 -103 442 -89 634 40 100 66 167 144 220 253 55 113 69 186 63 318 -13 257
-174 471 -426 565 -85 32 -272 40 -365 17z"/>
<path d="M1570 3184 c-229 -49 -431 -246 -484 -474 -9 -36 -16 -103 -16 -150
0 -179 58 -318 185 -446 92 -93 201 -154 320 -179 333 -70 662 135 751 466 22
83 23 234 1 316 -88 333 -421 540 -757 467z"/>
<path d="M3263 3181 c-229 -56 -410 -235 -470 -464 -21 -81 -21 -233 0 -314
87 -332 418 -538 752 -468 233 49 435 245 489 475 9 36 16 103 16 150 0 179
-58 318 -185 446 -63 64 -98 90 -165 123 -144 70 -291 88 -437 52z"/>
<path d="M1614 1701 c-142 -23 -290 -103 -383 -208 -64 -71 -126 -190 -147
-279 -24 -101 -15 -267 18 -356 70 -187 209 -326 396 -396 82 -30 239 -41 334
-23 88 17 232 89 300 151 72 64 150 180 177 262 58 179 49 328 -31 497 -57
120 -169 233 -288 289 -47 22 -105 44 -130 50 -66 16 -187 22 -246 13z"/>
<path d="M3350 1704 c-97 -16 -145 -31 -220 -66 -120 -58 -231 -168 -288 -288
-53 -111 -66 -174 -65 -295 2 -236 131 -444 344 -555 107 -55 189 -73 319 -67
174 7 306 64 424 183 120 121 176 251 183 424 6 130 -12 212 -67 319 -104 200
-302 330 -525 344 -44 3 -91 3 -105 1z"/>
</g>
</svg>
